<mxfile host="app.diagrams.net" modified="2022-05-06T16:26:56.165Z" agent="5.0 (Windows NT 10.0; Win64; x64) AppleWebKit/537.36 (KHTML, like Gecko) Chrome/101.0.4951.41 Safari/537.36 Edg/101.0.1210.32" etag="KDQr7u1geVufxGY2j1d8" version="18.0.0" type="github">
  <diagram id="kXL66cv_u4CMS8DT0YEe" name="Page-1">
    <mxGraphModel dx="2123" dy="1900" grid="1" gridSize="10" guides="1" tooltips="1" connect="1" arrows="1" fold="1" page="1" pageScale="1" pageWidth="827" pageHeight="1169" math="0" shadow="0">
      <root>
        <mxCell id="0" />
        <mxCell id="1" parent="0" />
        <mxCell id="jaihn0EKF0fuKa9CYaYA-4" style="edgeStyle=orthogonalEdgeStyle;rounded=0;orthogonalLoop=1;jettySize=auto;html=1;exitX=0.5;exitY=1;exitDx=0;exitDy=0;entryX=0.5;entryY=0;entryDx=0;entryDy=0;fontSize=13;" parent="1" source="jaihn0EKF0fuKa9CYaYA-1" target="jaihn0EKF0fuKa9CYaYA-2" edge="1">
          <mxGeometry relative="1" as="geometry" />
        </mxCell>
        <mxCell id="jaihn0EKF0fuKa9CYaYA-1" value="统一下发通知（含二维码）" style="rounded=0;whiteSpace=wrap;html=1;fontSize=13;" parent="1" vertex="1">
          <mxGeometry x="408.12" width="170" height="40" as="geometry" />
        </mxCell>
        <mxCell id="jaihn0EKF0fuKa9CYaYA-6" style="edgeStyle=orthogonalEdgeStyle;rounded=0;orthogonalLoop=1;jettySize=auto;html=1;exitX=0.5;exitY=1;exitDx=0;exitDy=0;entryX=0.5;entryY=0;entryDx=0;entryDy=0;fontColor=#FF0D0D;fontSize=13;" parent="1" source="jaihn0EKF0fuKa9CYaYA-2" target="jaihn0EKF0fuKa9CYaYA-3" edge="1">
          <mxGeometry relative="1" as="geometry" />
        </mxCell>
        <mxCell id="jaihn0EKF0fuKa9CYaYA-2" value="考生扫码 访问报名页面，填写基础信息&lt;br style=&quot;font-size: 13px;&quot;&gt;（二维码是用）&lt;br style=&quot;font-size: 13px;&quot;&gt;" style="rounded=0;whiteSpace=wrap;html=1;fontSize=13;" parent="1" vertex="1">
          <mxGeometry x="355" y="110" width="276.25" height="60" as="geometry" />
        </mxCell>
        <mxCell id="jaihn0EKF0fuKa9CYaYA-18" style="edgeStyle=orthogonalEdgeStyle;rounded=0;orthogonalLoop=1;jettySize=auto;html=1;exitX=0.5;exitY=1;exitDx=0;exitDy=0;entryX=0.5;entryY=0;entryDx=0;entryDy=0;fontColor=#000000;fontSize=13;" parent="1" source="jaihn0EKF0fuKa9CYaYA-3" target="jaihn0EKF0fuKa9CYaYA-8" edge="1">
          <mxGeometry relative="1" as="geometry" />
        </mxCell>
        <mxCell id="jaihn0EKF0fuKa9CYaYA-3" value="&lt;div style=&quot;text-align: justify&quot;&gt;&lt;span&gt;进入一财报名页面&lt;/span&gt;&lt;/div&gt;&lt;div style=&quot;text-align: justify&quot;&gt;&lt;span&gt;1、需要填写手机号码注册&lt;/span&gt;&lt;/div&gt;&lt;div style=&quot;text-align: justify&quot;&gt;&lt;span&gt;2、获取验证码注册&lt;/span&gt;&lt;/div&gt;" style="rounded=0;whiteSpace=wrap;html=1;fontSize=13;align=center;" parent="1" vertex="1">
          <mxGeometry x="410" y="190" width="180" height="80" as="geometry" />
        </mxCell>
        <mxCell id="jaihn0EKF0fuKa9CYaYA-5" value="&lt;h1 style=&quot;font-size: 15px&quot;&gt;&lt;br style=&quot;font-size: 15px&quot;&gt;&lt;/h1&gt;&lt;p style=&quot;font-size: 15px&quot;&gt;&lt;font color=&quot;#ff0d0d&quot; style=&quot;font-size: 15px&quot;&gt;&lt;span style=&quot;text-align: center ; font-size: 15px&quot;&gt;需要讨论下报名后数据筛选的问题&lt;/span&gt;&lt;/font&gt;&lt;/p&gt;&lt;p style=&quot;font-size: 15px&quot;&gt;&lt;font color=&quot;#ff0d0d&quot; style=&quot;font-size: 15px&quot;&gt;&lt;span style=&quot;text-align: center ; font-size: 15px&quot;&gt;会不会有不符合情况的人？&lt;/span&gt;&lt;/font&gt;&lt;br style=&quot;font-size: 15px&quot;&gt;&lt;/p&gt;" style="text;html=1;strokeColor=none;fillColor=none;spacing=5;spacingTop=-20;whiteSpace=wrap;overflow=hidden;rounded=0;fontSize=15;" parent="1" vertex="1">
          <mxGeometry x="650" y="55" width="291.87" height="120" as="geometry" />
        </mxCell>
        <mxCell id="jaihn0EKF0fuKa9CYaYA-7" value="1、填写手机号&lt;br style=&quot;font-size: 13px;&quot;&gt;2、填写姓名&lt;br style=&quot;font-size: 13px;&quot;&gt;3、填写工作单位&lt;br style=&quot;font-size: 13px;&quot;&gt;4、填写身份证信息" style="text;html=1;strokeColor=none;fillColor=none;align=left;verticalAlign=middle;whiteSpace=wrap;rounded=0;fontColor=#FF0D0D;fontSize=13;" parent="1" vertex="1">
          <mxGeometry x="631.25" y="295" width="150" height="70" as="geometry" />
        </mxCell>
        <mxCell id="jaihn0EKF0fuKa9CYaYA-19" style="edgeStyle=orthogonalEdgeStyle;rounded=0;orthogonalLoop=1;jettySize=auto;html=1;exitX=0.5;exitY=1;exitDx=0;exitDy=0;entryX=0.5;entryY=0;entryDx=0;entryDy=0;fontColor=#000000;fontSize=13;" parent="1" source="jaihn0EKF0fuKa9CYaYA-8" target="jaihn0EKF0fuKa9CYaYA-10" edge="1">
          <mxGeometry relative="1" as="geometry" />
        </mxCell>
        <mxCell id="jaihn0EKF0fuKa9CYaYA-8" value="填写报名信息" style="rounded=0;whiteSpace=wrap;html=1;fontColor=#FF0D0D;fontSize=13;" parent="1" vertex="1">
          <mxGeometry x="433.13" y="300" width="120" height="60" as="geometry" />
        </mxCell>
        <mxCell id="jaihn0EKF0fuKa9CYaYA-20" style="edgeStyle=orthogonalEdgeStyle;rounded=0;orthogonalLoop=1;jettySize=auto;html=1;exitX=0.5;exitY=1;exitDx=0;exitDy=0;fontColor=#000000;fontSize=13;" parent="1" source="jaihn0EKF0fuKa9CYaYA-10" target="jaihn0EKF0fuKa9CYaYA-13" edge="1">
          <mxGeometry relative="1" as="geometry" />
        </mxCell>
        <mxCell id="jaihn0EKF0fuKa9CYaYA-10" value="跳转报名成功&lt;br style=&quot;font-size: 13px;&quot;&gt;及后续培训注意事项&lt;br style=&quot;font-size: 13px;&quot;&gt;并提示会在之后2天内收到考试短信" style="rounded=0;whiteSpace=wrap;html=1;fontColor=#000000;fontSize=13;" parent="1" vertex="1">
          <mxGeometry x="415.64" y="390" width="154.99" height="80" as="geometry" />
        </mxCell>
        <mxCell id="jaihn0EKF0fuKa9CYaYA-11" value="1、页面提示用户去访问bioshanghai公众号&lt;br style=&quot;font-size: 13px;&quot;&gt;2、提示用户访问公众号后，回复“培训”关键词，获取培训课程。&lt;br style=&quot;font-size: 13px;&quot;&gt;3、提示2天内会收到带有考试链接的短信" style="text;html=1;strokeColor=none;fillColor=none;align=left;verticalAlign=middle;whiteSpace=wrap;rounded=0;fontColor=#FF0D0D;fontSize=13;" parent="1" vertex="1">
          <mxGeometry x="631.25" y="395" width="266.88" height="70" as="geometry" />
        </mxCell>
        <mxCell id="jaihn0EKF0fuKa9CYaYA-12" value="&lt;div style=&quot;text-align: left; font-size: 13px;&quot;&gt;&lt;span style=&quot;font-size: 13px;&quot;&gt;1、报名页上有报名须知，注意事项等&lt;/span&gt;&lt;/div&gt;&lt;span style=&quot;font-size: 13px;&quot;&gt;&lt;div style=&quot;text-align: left; font-size: 13px;&quot;&gt;&lt;span style=&quot;font-size: 13px;&quot;&gt;2、是否要加隐私免责等内容&lt;/span&gt;&lt;/div&gt;&lt;/span&gt;" style="text;html=1;strokeColor=none;fillColor=none;align=center;verticalAlign=middle;whiteSpace=wrap;rounded=0;fontColor=#FF0D0D;fontSize=13;" parent="1" vertex="1">
          <mxGeometry x="618.13" y="225" width="236.88" height="30" as="geometry" />
        </mxCell>
        <mxCell id="jaihn0EKF0fuKa9CYaYA-13" value="报名结束" style="rounded=0;whiteSpace=wrap;html=1;fontColor=#000000;fontSize=13;" parent="1" vertex="1">
          <mxGeometry x="433.13" y="510" width="120" height="60" as="geometry" />
        </mxCell>
        <mxCell id="jaihn0EKF0fuKa9CYaYA-14" value="页面文字：感谢报名参与！&lt;br style=&quot;font-size: 13px;&quot;&gt;请认真观看培训视频，参与培训答疑。&lt;br style=&quot;font-size: 13px;&quot;&gt;2天内会收到考试链接短信。" style="text;html=1;strokeColor=none;fillColor=none;align=left;verticalAlign=middle;whiteSpace=wrap;rounded=0;fontColor=#FF0D0D;fontSize=13;" parent="1" vertex="1">
          <mxGeometry x="631.25" y="505" width="266.88" height="70" as="geometry" />
        </mxCell>
        <mxCell id="jaihn0EKF0fuKa9CYaYA-21" value="&lt;h1&gt;考试相关信息&lt;/h1&gt;&lt;p style=&quot;font-size: 14px&quot;&gt;&lt;font style=&quot;font-size: 14px&quot;&gt;报名时间：5月6日 - 8日&amp;nbsp; （新）&lt;/font&gt;&lt;/p&gt;&lt;p style=&quot;font-size: 14px&quot;&gt;&lt;font style=&quot;font-size: 14px&quot;&gt;培训时间：5月9日 - 11日 （新）&lt;/font&gt;&lt;/p&gt;&lt;p style=&quot;font-size: 14px&quot;&gt;&lt;font style=&quot;font-size: 14px&quot;&gt;考试时间：5月12日 14:00 - 18:00 &lt;/font&gt;&lt;span style=&quot;font-size: 13px&quot;&gt;（拟）&lt;/span&gt;&lt;/p&gt;" style="text;html=1;strokeColor=none;fillColor=none;spacing=5;spacingTop=-20;whiteSpace=wrap;overflow=hidden;rounded=0;fontColor=#000000;" parent="1" vertex="1">
          <mxGeometry x="10" y="40" width="260" height="150" as="geometry" />
        </mxCell>
        <mxCell id="jaihn0EKF0fuKa9CYaYA-22" value="&lt;h1 style=&quot;font-size: 15px;&quot;&gt;考生数据统计&lt;/h1&gt;&lt;p style=&quot;font-size: 15px;&quot;&gt;1、考生的报名数据，最终统计报名人数，信息完整情况（如手机号码或身份证无效的）&lt;/p&gt;&lt;p style=&quot;font-size: 15px;&quot;&gt;2、统计时间，每天统计还是最终一起统计？&lt;/p&gt;&lt;p style=&quot;font-size: 15px;&quot;&gt;3、最后要给所有报名成功的，发送考试链接短信。&lt;/p&gt;" style="text;html=1;strokeColor=none;fillColor=none;spacing=5;spacingTop=-20;whiteSpace=wrap;overflow=hidden;rounded=0;fontColor=#000000;fontSize=15;" parent="1" vertex="1">
          <mxGeometry x="10" y="217.5" width="280" height="205" as="geometry" />
        </mxCell>
        <mxCell id="jaihn0EKF0fuKa9CYaYA-23" value="报名考生访问&lt;br&gt;微信公众号" style="rounded=1;whiteSpace=wrap;html=1;fontColor=#000000;fontSize=14;" parent="1" vertex="1">
          <mxGeometry x="332.5" y="730" width="145.01" height="60" as="geometry" />
        </mxCell>
        <mxCell id="jaihn0EKF0fuKa9CYaYA-34" style="edgeStyle=orthogonalEdgeStyle;rounded=0;orthogonalLoop=1;jettySize=auto;html=1;exitX=0.5;exitY=1;exitDx=0;exitDy=0;fontColor=#000000;fontSize=14;" parent="1" source="jaihn0EKF0fuKa9CYaYA-24" target="jaihn0EKF0fuKa9CYaYA-31" edge="1">
          <mxGeometry relative="1" as="geometry" />
        </mxCell>
        <mxCell id="jaihn0EKF0fuKa9CYaYA-24" value="1、关注公众号&lt;br style=&quot;font-size: 14px;&quot;&gt;2、收到关注后的推送文章。&lt;font color=&quot;#ff0d0d&quot; style=&quot;font-size: 14px;&quot;&gt;（推文1）&lt;/font&gt;" style="rounded=1;whiteSpace=wrap;html=1;fontColor=#000000;align=left;fontSize=14;" parent="1" vertex="1">
          <mxGeometry x="215" y="840" width="160" height="60" as="geometry" />
        </mxCell>
        <mxCell id="jaihn0EKF0fuKa9CYaYA-38" style="edgeStyle=orthogonalEdgeStyle;rounded=0;orthogonalLoop=1;jettySize=auto;html=1;exitX=0.5;exitY=1;exitDx=0;exitDy=0;entryX=0.5;entryY=0;entryDx=0;entryDy=0;fontColor=#000000;fontSize=14;" parent="1" source="jaihn0EKF0fuKa9CYaYA-25" target="jaihn0EKF0fuKa9CYaYA-35" edge="1">
          <mxGeometry relative="1" as="geometry" />
        </mxCell>
        <mxCell id="jaihn0EKF0fuKa9CYaYA-25" value="1、进入公众号&lt;br style=&quot;font-size: 14px;&quot;&gt;2、回复关键词“培训”" style="rounded=1;whiteSpace=wrap;html=1;fontColor=#000000;align=left;fontSize=14;" parent="1" vertex="1">
          <mxGeometry x="453" y="840" width="145" height="60" as="geometry" />
        </mxCell>
        <mxCell id="jaihn0EKF0fuKa9CYaYA-26" value="" style="endArrow=classic;html=1;rounded=0;fontColor=#000000;entryX=0.405;entryY=-0.035;entryDx=0;entryDy=0;entryPerimeter=0;exitX=0;exitY=0.5;exitDx=0;exitDy=0;fontSize=14;" parent="1" source="jaihn0EKF0fuKa9CYaYA-23" target="jaihn0EKF0fuKa9CYaYA-24" edge="1">
          <mxGeometry relative="1" as="geometry">
            <mxPoint x="130" y="810" as="sourcePoint" />
            <mxPoint x="230" y="810" as="targetPoint" />
            <Array as="points">
              <mxPoint x="279" y="760" />
            </Array>
          </mxGeometry>
        </mxCell>
        <mxCell id="jaihn0EKF0fuKa9CYaYA-27" value="未关注的考生" style="edgeLabel;resizable=0;html=1;align=center;verticalAlign=middle;fontColor=#FF0B03;fontSize=14;" parent="jaihn0EKF0fuKa9CYaYA-26" connectable="0" vertex="1">
          <mxGeometry relative="1" as="geometry" />
        </mxCell>
        <mxCell id="jaihn0EKF0fuKa9CYaYA-29" value="" style="endArrow=classic;html=1;rounded=0;fontColor=#000000;entryX=0.5;entryY=0;entryDx=0;entryDy=0;fontSize=14;" parent="1" target="jaihn0EKF0fuKa9CYaYA-25" edge="1">
          <mxGeometry relative="1" as="geometry">
            <mxPoint x="480" y="760" as="sourcePoint" />
            <mxPoint x="600" y="760" as="targetPoint" />
            <Array as="points">
              <mxPoint x="525" y="760" />
            </Array>
          </mxGeometry>
        </mxCell>
        <mxCell id="jaihn0EKF0fuKa9CYaYA-30" value="已关注" style="edgeLabel;resizable=0;html=1;align=center;verticalAlign=middle;fontColor=#000000;fontSize=14;" parent="jaihn0EKF0fuKa9CYaYA-29" connectable="0" vertex="1">
          <mxGeometry relative="1" as="geometry" />
        </mxCell>
        <mxCell id="jaihn0EKF0fuKa9CYaYA-37" style="edgeStyle=orthogonalEdgeStyle;rounded=0;orthogonalLoop=1;jettySize=auto;html=1;exitX=0.5;exitY=1;exitDx=0;exitDy=0;entryX=0.5;entryY=0;entryDx=0;entryDy=0;fontColor=#000000;fontSize=14;" parent="1" source="jaihn0EKF0fuKa9CYaYA-31" target="jaihn0EKF0fuKa9CYaYA-36" edge="1">
          <mxGeometry relative="1" as="geometry" />
        </mxCell>
        <mxCell id="jaihn0EKF0fuKa9CYaYA-31" value="考生回复关键词&lt;br style=&quot;font-size: 14px;&quot;&gt;“培训”" style="rounded=1;whiteSpace=wrap;html=1;fontColor=#000000;fontSize=14;" parent="1" vertex="1">
          <mxGeometry x="235" y="950" width="120" height="50" as="geometry" />
        </mxCell>
        <mxCell id="jaihn0EKF0fuKa9CYaYA-40" style="edgeStyle=orthogonalEdgeStyle;rounded=0;orthogonalLoop=1;jettySize=auto;html=1;exitX=0.5;exitY=1;exitDx=0;exitDy=0;fontColor=#000000;fontSize=14;" parent="1" source="jaihn0EKF0fuKa9CYaYA-35" target="jaihn0EKF0fuKa9CYaYA-39" edge="1">
          <mxGeometry relative="1" as="geometry" />
        </mxCell>
        <mxCell id="jaihn0EKF0fuKa9CYaYA-35" value="收到“培训视频”的内容推送&lt;br style=&quot;font-size: 14px;&quot;&gt;&lt;font color=&quot;#ff0d0d&quot; style=&quot;font-size: 14px;&quot;&gt;（推文2）&lt;/font&gt;" style="rounded=1;whiteSpace=wrap;html=1;fontColor=#000000;fontSize=14;" parent="1" vertex="1">
          <mxGeometry x="449" y="950" width="153" height="60" as="geometry" />
        </mxCell>
        <mxCell id="jaihn0EKF0fuKa9CYaYA-41" style="edgeStyle=orthogonalEdgeStyle;rounded=0;orthogonalLoop=1;jettySize=auto;html=1;exitX=0.5;exitY=1;exitDx=0;exitDy=0;fontColor=#000000;entryX=0.5;entryY=0;entryDx=0;entryDy=0;fontSize=14;" parent="1" source="jaihn0EKF0fuKa9CYaYA-36" target="jaihn0EKF0fuKa9CYaYA-39" edge="1">
          <mxGeometry relative="1" as="geometry">
            <mxPoint x="450" y="1170" as="targetPoint" />
          </mxGeometry>
        </mxCell>
        <mxCell id="jaihn0EKF0fuKa9CYaYA-36" value="收到“培训视频”的内容推送&lt;br style=&quot;font-size: 14px;&quot;&gt;&lt;span style=&quot;color: rgb(255, 13, 13); font-size: 14px;&quot;&gt;（推文2）&lt;/span&gt;" style="rounded=1;whiteSpace=wrap;html=1;fontColor=#000000;fontSize=14;" parent="1" vertex="1">
          <mxGeometry x="218.5" y="1050" width="153" height="60" as="geometry" />
        </mxCell>
        <mxCell id="jaihn0EKF0fuKa9CYaYA-39" value="考生观看视频，进行培训&lt;br style=&quot;font-size: 14px;&quot;&gt;在视频下放留言，提出问题" style="rounded=1;whiteSpace=wrap;html=1;fontColor=#000000;fontSize=14;" parent="1" vertex="1">
          <mxGeometry x="355" y="1170" width="175" height="60" as="geometry" />
        </mxCell>
        <mxCell id="jaihn0EKF0fuKa9CYaYA-42" value="&lt;h1 style=&quot;font-size: 14px;&quot;&gt;推文1&lt;/h1&gt;&lt;p style=&quot;font-size: 14px;&quot;&gt;报名+操作的内容文章&lt;/p&gt;&lt;p style=&quot;font-size: 14px;&quot;&gt;包含 培训报名链接，报名须知&lt;/p&gt;&lt;p style=&quot;font-size: 14px;&quot;&gt;&lt;font color=&quot;#ff0d0d&quot; style=&quot;font-size: 14px;&quot;&gt;包含 公众号操作须知，回复关键词等&lt;/font&gt;&lt;/p&gt;&lt;p style=&quot;font-size: 14px;&quot;&gt;&lt;font color=&quot;#ff0d0d&quot; style=&quot;font-size: 14px;&quot;&gt;包含答疑时间等&lt;/font&gt;&lt;/p&gt;" style="text;html=1;strokeColor=none;fillColor=none;spacing=5;spacingTop=-20;whiteSpace=wrap;overflow=hidden;rounded=0;fontColor=#000000;fontSize=14;" parent="1" vertex="1">
          <mxGeometry x="630" y="750" width="220" height="160" as="geometry" />
        </mxCell>
        <mxCell id="jaihn0EKF0fuKa9CYaYA-43" value="&lt;h1 style=&quot;font-size: 14px;&quot;&gt;&lt;font color=&quot;#000000&quot; style=&quot;font-size: 14px;&quot;&gt;推文2&lt;/font&gt;&lt;/h1&gt;&lt;p style=&quot;font-size: 14px;&quot;&gt;&lt;font color=&quot;#000000&quot; style=&quot;font-size: 14px;&quot;&gt;公众号的页面模板，&lt;/font&gt;&lt;/p&gt;&lt;p style=&quot;font-size: 14px;&quot;&gt;&lt;font color=&quot;#000000&quot; style=&quot;font-size: 14px;&quot;&gt;视频文章合集，10集的培训视频内容&lt;/font&gt;&lt;/p&gt;&lt;p style=&quot;font-size: 14px;&quot;&gt;&lt;font color=&quot;#000000&quot; style=&quot;font-size: 14px;&quot;&gt;一共8条（10集内容有2集合并一下）&lt;/font&gt;&lt;/p&gt;" style="text;html=1;strokeColor=none;fillColor=none;spacing=5;spacingTop=-20;whiteSpace=wrap;overflow=hidden;rounded=0;fontColor=#FF0D0D;fontSize=14;" parent="1" vertex="1">
          <mxGeometry x="630" y="940" width="220" height="170" as="geometry" />
        </mxCell>
        <mxCell id="jaihn0EKF0fuKa9CYaYA-51" style="edgeStyle=orthogonalEdgeStyle;rounded=0;orthogonalLoop=1;jettySize=auto;html=1;exitX=0.5;exitY=1;exitDx=0;exitDy=0;fontColor=#FF0A0A;" parent="1" source="jaihn0EKF0fuKa9CYaYA-44" target="jaihn0EKF0fuKa9CYaYA-49" edge="1">
          <mxGeometry relative="1" as="geometry" />
        </mxCell>
        <mxCell id="jaihn0EKF0fuKa9CYaYA-44" value="群发短信给报名考生" style="rounded=0;whiteSpace=wrap;html=1;fontColor=#000000;" parent="1" vertex="1">
          <mxGeometry x="357.51" y="1370" width="120" height="60" as="geometry" />
        </mxCell>
        <mxCell id="jaihn0EKF0fuKa9CYaYA-45" value="&lt;h1 style=&quot;font-size: 14px;&quot;&gt;微信公众号操作&lt;/h1&gt;&lt;p style=&quot;font-size: 14px;&quot;&gt;公众号操作流程&lt;/p&gt;" style="text;html=1;strokeColor=none;fillColor=none;spacing=5;spacingTop=-20;whiteSpace=wrap;overflow=hidden;rounded=0;fontColor=#000000;fontSize=14;" parent="1" vertex="1">
          <mxGeometry x="25" y="700" width="190" height="70" as="geometry" />
        </mxCell>
        <mxCell id="jaihn0EKF0fuKa9CYaYA-46" value="" style="endArrow=none;html=1;rounded=0;fontColor=#000000;" parent="1" edge="1">
          <mxGeometry width="50" height="50" relative="1" as="geometry">
            <mxPoint x="-4.99" y="670" as="sourcePoint" />
            <mxPoint x="855.01" y="670" as="targetPoint" />
          </mxGeometry>
        </mxCell>
        <mxCell id="jaihn0EKF0fuKa9CYaYA-47" value="" style="endArrow=none;html=1;rounded=0;fontColor=#000000;" parent="1" edge="1">
          <mxGeometry width="50" height="50" relative="1" as="geometry">
            <mxPoint y="1310" as="sourcePoint" />
            <mxPoint x="860" y="1310" as="targetPoint" />
          </mxGeometry>
        </mxCell>
        <mxCell id="jaihn0EKF0fuKa9CYaYA-48" value="&lt;h1&gt;考试流程&lt;/h1&gt;" style="text;html=1;strokeColor=none;fillColor=none;spacing=5;spacingTop=-20;whiteSpace=wrap;overflow=hidden;rounded=0;fontColor=#000000;" parent="1" vertex="1">
          <mxGeometry x="25" y="1350" width="190" height="120" as="geometry" />
        </mxCell>
        <mxCell id="jaihn0EKF0fuKa9CYaYA-63" style="edgeStyle=orthogonalEdgeStyle;rounded=0;orthogonalLoop=1;jettySize=auto;html=1;exitX=0.5;exitY=1;exitDx=0;exitDy=0;fontColor=#FF0A0A;fontSize=14;" parent="1" source="jaihn0EKF0fuKa9CYaYA-49" target="jaihn0EKF0fuKa9CYaYA-52" edge="1">
          <mxGeometry relative="1" as="geometry" />
        </mxCell>
        <mxCell id="jaihn0EKF0fuKa9CYaYA-49" value="通过链接，访问问卷星的考试页面" style="rounded=0;whiteSpace=wrap;html=1;fontColor=#000000;fontSize=14;" parent="1" vertex="1">
          <mxGeometry x="357.51" y="1500" width="120" height="60" as="geometry" />
        </mxCell>
        <mxCell id="jaihn0EKF0fuKa9CYaYA-50" value="考试页面要做限制与否？&lt;br style=&quot;font-size: 14px;&quot;&gt;只要有链接，都能进入考试，还是只有报名的才进入考试？&lt;br style=&quot;font-size: 14px;&quot;&gt;目前按照：提供手机号的作为识别" style="text;html=1;strokeColor=none;fillColor=none;align=left;verticalAlign=middle;whiteSpace=wrap;rounded=0;fontColor=#FF0A0A;fontSize=14;" parent="1" vertex="1">
          <mxGeometry x="570" y="1495" width="201.88" height="70" as="geometry" />
        </mxCell>
        <mxCell id="jaihn0EKF0fuKa9CYaYA-52" value="考生答题" style="rounded=0;whiteSpace=wrap;html=1;fontColor=#FF0A0A;fontSize=14;" parent="1" vertex="1">
          <mxGeometry x="357.51" y="1610" width="120" height="60" as="geometry" />
        </mxCell>
        <mxCell id="jaihn0EKF0fuKa9CYaYA-60" style="edgeStyle=orthogonalEdgeStyle;rounded=0;orthogonalLoop=1;jettySize=auto;html=1;exitX=0;exitY=0.5;exitDx=0;exitDy=0;fontColor=#FF0A0A;entryX=0;entryY=0.5;entryDx=0;entryDy=0;fontSize=14;" parent="1" source="jaihn0EKF0fuKa9CYaYA-53" target="jaihn0EKF0fuKa9CYaYA-49" edge="1">
          <mxGeometry relative="1" as="geometry">
            <Array as="points">
              <mxPoint x="225" y="1770" />
              <mxPoint x="225" y="1590" />
              <mxPoint x="310" y="1590" />
              <mxPoint x="310" y="1530" />
            </Array>
          </mxGeometry>
        </mxCell>
        <mxCell id="jaihn0EKF0fuKa9CYaYA-65" style="edgeStyle=orthogonalEdgeStyle;rounded=0;orthogonalLoop=1;jettySize=auto;html=1;exitX=0.5;exitY=1;exitDx=0;exitDy=0;entryX=0.5;entryY=0;entryDx=0;entryDy=0;fontColor=#FF0A0A;fontSize=14;" parent="1" source="jaihn0EKF0fuKa9CYaYA-53" target="jaihn0EKF0fuKa9CYaYA-64" edge="1">
          <mxGeometry relative="1" as="geometry" />
        </mxCell>
        <mxCell id="jaihn0EKF0fuKa9CYaYA-53" value="考试不合格&lt;br style=&quot;font-size: 14px;&quot;&gt;第一次失败" style="rounded=0;whiteSpace=wrap;html=1;fontColor=#FF0A0A;fontSize=14;" parent="1" vertex="1">
          <mxGeometry x="245" y="1740" width="120" height="60" as="geometry" />
        </mxCell>
        <mxCell id="jaihn0EKF0fuKa9CYaYA-66" style="edgeStyle=orthogonalEdgeStyle;rounded=0;orthogonalLoop=1;jettySize=auto;html=1;exitX=0.5;exitY=1;exitDx=0;exitDy=0;entryX=0.5;entryY=0;entryDx=0;entryDy=0;fontColor=#FF0A0A;fontSize=14;" parent="1" source="jaihn0EKF0fuKa9CYaYA-54" target="jaihn0EKF0fuKa9CYaYA-62" edge="1">
          <mxGeometry relative="1" as="geometry" />
        </mxCell>
        <mxCell id="jaihn0EKF0fuKa9CYaYA-54" value="考试合格" style="rounded=0;whiteSpace=wrap;html=1;fontColor=#FF0A0A;fontSize=14;" parent="1" vertex="1">
          <mxGeometry x="482.5" y="1740" width="120" height="60" as="geometry" />
        </mxCell>
        <mxCell id="jaihn0EKF0fuKa9CYaYA-55" value="" style="endArrow=classic;html=1;rounded=0;fontColor=#FF0A0A;entryX=0.5;entryY=0;entryDx=0;entryDy=0;exitX=0;exitY=0.5;exitDx=0;exitDy=0;fontSize=14;" parent="1" source="jaihn0EKF0fuKa9CYaYA-52" target="jaihn0EKF0fuKa9CYaYA-53" edge="1">
          <mxGeometry relative="1" as="geometry">
            <mxPoint x="220" y="1650" as="sourcePoint" />
            <mxPoint x="320" y="1650" as="targetPoint" />
            <Array as="points">
              <mxPoint x="305" y="1640" />
            </Array>
          </mxGeometry>
        </mxCell>
        <mxCell id="jaihn0EKF0fuKa9CYaYA-56" value="成绩80分以下" style="edgeLabel;resizable=0;html=1;align=center;verticalAlign=middle;fontColor=#FF0A0A;fontSize=14;" parent="jaihn0EKF0fuKa9CYaYA-55" connectable="0" vertex="1">
          <mxGeometry relative="1" as="geometry" />
        </mxCell>
        <mxCell id="jaihn0EKF0fuKa9CYaYA-57" value="" style="endArrow=classic;html=1;rounded=0;fontColor=#FF0A0A;entryX=0.5;entryY=0;entryDx=0;entryDy=0;exitX=1;exitY=0.5;exitDx=0;exitDy=0;fontSize=14;" parent="1" source="jaihn0EKF0fuKa9CYaYA-52" target="jaihn0EKF0fuKa9CYaYA-54" edge="1">
          <mxGeometry relative="1" as="geometry">
            <mxPoint x="490" y="1640" as="sourcePoint" />
            <mxPoint x="590" y="1640" as="targetPoint" />
            <Array as="points">
              <mxPoint x="543" y="1640" />
            </Array>
          </mxGeometry>
        </mxCell>
        <mxCell id="jaihn0EKF0fuKa9CYaYA-58" value="成绩80分以上" style="edgeLabel;resizable=0;html=1;align=center;verticalAlign=middle;fontColor=#FF0A0A;fontSize=14;" parent="jaihn0EKF0fuKa9CYaYA-57" connectable="0" vertex="1">
          <mxGeometry relative="1" as="geometry" />
        </mxCell>
        <mxCell id="jaihn0EKF0fuKa9CYaYA-59" value="&lt;h1 style=&quot;font-size: 14px;&quot;&gt;关于考试试题&lt;/h1&gt;&lt;p style=&quot;font-size: 14px;&quot;&gt;一次考试50道试题，每题2分&lt;/p&gt;&lt;p style=&quot;font-size: 14px;&quot;&gt;满分100分&lt;/p&gt;" style="text;html=1;strokeColor=none;fillColor=none;spacing=5;spacingTop=-20;whiteSpace=wrap;overflow=hidden;rounded=0;fontColor=#FF0A0A;fontSize=14;" parent="1" vertex="1">
          <mxGeometry x="29" y="1480" width="190" height="120" as="geometry" />
        </mxCell>
        <mxCell id="jaihn0EKF0fuKa9CYaYA-61" value="重新参加考试" style="text;html=1;strokeColor=none;fillColor=none;align=center;verticalAlign=middle;whiteSpace=wrap;rounded=0;fontColor=#FF0A0A;fontSize=14;" parent="1" vertex="1">
          <mxGeometry x="140" y="1650" width="90" height="30" as="geometry" />
        </mxCell>
        <mxCell id="jaihn0EKF0fuKa9CYaYA-68" style="edgeStyle=orthogonalEdgeStyle;rounded=0;orthogonalLoop=1;jettySize=auto;html=1;exitX=0.5;exitY=1;exitDx=0;exitDy=0;entryX=0.5;entryY=0;entryDx=0;entryDy=0;fontColor=#FF0A0A;fontSize=14;" parent="1" source="jaihn0EKF0fuKa9CYaYA-62" target="jaihn0EKF0fuKa9CYaYA-67" edge="1">
          <mxGeometry relative="1" as="geometry" />
        </mxCell>
        <mxCell id="jaihn0EKF0fuKa9CYaYA-62" value="跳转页面&lt;br style=&quot;font-size: 14px;&quot;&gt;考试通过，考试通过电子证书" style="rounded=0;whiteSpace=wrap;html=1;fontColor=#FF0A0A;fontSize=14;" parent="1" vertex="1">
          <mxGeometry x="482" y="1870" width="120" height="60" as="geometry" />
        </mxCell>
        <mxCell id="jaihn0EKF0fuKa9CYaYA-69" style="edgeStyle=orthogonalEdgeStyle;rounded=0;orthogonalLoop=1;jettySize=auto;html=1;exitX=0.5;exitY=1;exitDx=0;exitDy=0;fontColor=#FF0A0A;fontSize=14;" parent="1" source="jaihn0EKF0fuKa9CYaYA-64" edge="1">
          <mxGeometry relative="1" as="geometry">
            <mxPoint x="420" y="1990" as="targetPoint" />
          </mxGeometry>
        </mxCell>
        <mxCell id="jaihn0EKF0fuKa9CYaYA-64" value="2次都不合格&lt;br style=&quot;font-size: 14px;&quot;&gt;考试结束" style="rounded=0;whiteSpace=wrap;html=1;fontColor=#FF0A0A;fontSize=14;" parent="1" vertex="1">
          <mxGeometry x="245" y="1870" width="120" height="60" as="geometry" />
        </mxCell>
        <mxCell id="jaihn0EKF0fuKa9CYaYA-67" value="关闭页面" style="rounded=0;whiteSpace=wrap;html=1;fontColor=#FF0A0A;fontSize=14;" parent="1" vertex="1">
          <mxGeometry x="365" y="1990" width="120" height="60" as="geometry" />
        </mxCell>
        <mxCell id="jaihn0EKF0fuKa9CYaYA-70" value="&lt;h1 style=&quot;font-size: 15px;&quot;&gt;答疑时间&lt;/h1&gt;&lt;p style=&quot;font-size: 15px;&quot;&gt;线上答疑时间：&amp;nbsp;&lt;/p&gt;&lt;p style=&quot;font-size: 15px;&quot;&gt;5月9日晚&amp;nbsp; &amp;nbsp; &amp;nbsp;19:00 - 20:00（拟）&lt;/p&gt;&lt;p style=&quot;font-size: 15px;&quot;&gt;5月10日晚&amp;nbsp; &amp;nbsp;19:00 - 20:00（拟）&lt;/p&gt;" style="text;html=1;strokeColor=none;fillColor=none;spacing=5;spacingTop=-20;whiteSpace=wrap;overflow=hidden;rounded=0;fontColor=#FF0A0A;fontSize=15;" parent="1" vertex="1">
          <mxGeometry x="10" y="430" width="240" height="120" as="geometry" />
        </mxCell>
        <mxCell id="jaihn0EKF0fuKa9CYaYA-71" value="&lt;h1 style=&quot;font-size: 14px;&quot;&gt;答疑时间&lt;/h1&gt;&lt;p style=&quot;font-size: 14px;&quot;&gt;线上答疑时间：&amp;nbsp;&lt;/p&gt;&lt;p style=&quot;font-size: 14px;&quot;&gt;5月9日晚&amp;nbsp; &amp;nbsp; &amp;nbsp;19:00 - 20:00（拟）&lt;/p&gt;&lt;p style=&quot;font-size: 14px;&quot;&gt;5月10日晚&amp;nbsp; &amp;nbsp;19:00 - 20:00（拟）&lt;/p&gt;" style="text;html=1;strokeColor=none;fillColor=none;spacing=5;spacingTop=-20;whiteSpace=wrap;overflow=hidden;rounded=0;fontColor=#FF0A0A;fontSize=14;" parent="1" vertex="1">
          <mxGeometry x="7.5" y="910" width="225" height="145" as="geometry" />
        </mxCell>
        <mxCell id="jaihn0EKF0fuKa9CYaYA-73" value="&lt;font color=&quot;#000000&quot;&gt;5月10日群发带考试链接的短信&lt;/font&gt;" style="rounded=0;whiteSpace=wrap;html=1;fontSize=14;fontColor=#FF0B03;" parent="1" vertex="1">
          <mxGeometry x="366" y="600" width="264" height="60" as="geometry" />
        </mxCell>
        <mxCell id="jaihn0EKF0fuKa9CYaYA-74" value="页面1：报名须知" style="text;html=1;strokeColor=none;fillColor=none;align=center;verticalAlign=middle;whiteSpace=wrap;rounded=0;fontSize=14;fontColor=#000000;" parent="1" vertex="1">
          <mxGeometry x="880" y="205" width="170" height="50" as="geometry" />
        </mxCell>
        <mxCell id="jaihn0EKF0fuKa9CYaYA-75" value="页面2：信息填写" style="text;html=1;strokeColor=none;fillColor=none;align=center;verticalAlign=middle;whiteSpace=wrap;rounded=0;fontSize=14;fontColor=#000000;" parent="1" vertex="1">
          <mxGeometry x="880" y="310" width="170" height="50" as="geometry" />
        </mxCell>
        <mxCell id="jaihn0EKF0fuKa9CYaYA-76" value="页面3：培训事项告知" style="text;html=1;strokeColor=none;fillColor=none;align=center;verticalAlign=middle;whiteSpace=wrap;rounded=0;fontSize=14;fontColor=#000000;" parent="1" vertex="1">
          <mxGeometry x="880" y="405" width="170" height="50" as="geometry" />
        </mxCell>
        <mxCell id="jaihn0EKF0fuKa9CYaYA-77" value="&lt;h1&gt;公众号建组&lt;/h1&gt;&lt;p&gt;建组群发&lt;/p&gt;&lt;p&gt;&lt;br&gt;&lt;/p&gt;" style="text;html=1;strokeColor=none;fillColor=none;spacing=5;spacingTop=-20;whiteSpace=wrap;overflow=hidden;rounded=0;fontSize=15;fontColor=#000000;" parent="1" vertex="1">
          <mxGeometry x="631.25" y="1110" width="190" height="120" as="geometry" />
        </mxCell>
        <mxCell id="NLDukdXP7PHWZ-6-YrMP-1" style="edgeStyle=orthogonalEdgeStyle;rounded=0;orthogonalLoop=1;jettySize=auto;html=1;exitX=0.5;exitY=1;exitDx=0;exitDy=0;entryX=0.5;entryY=0;entryDx=0;entryDy=0;fontSize=13;" edge="1" parent="1" source="NLDukdXP7PHWZ-6-YrMP-2" target="NLDukdXP7PHWZ-6-YrMP-4">
          <mxGeometry relative="1" as="geometry" />
        </mxCell>
        <mxCell id="NLDukdXP7PHWZ-6-YrMP-2" value="统一下发报名通知&lt;br&gt;（含二维码）" style="rounded=0;whiteSpace=wrap;html=1;fontSize=13;" vertex="1" parent="1">
          <mxGeometry x="1423.1299999999999" y="-90" width="170" height="40" as="geometry" />
        </mxCell>
        <mxCell id="NLDukdXP7PHWZ-6-YrMP-3" style="edgeStyle=orthogonalEdgeStyle;rounded=0;orthogonalLoop=1;jettySize=auto;html=1;exitX=0.5;exitY=1;exitDx=0;exitDy=0;entryX=0.5;entryY=0;entryDx=0;entryDy=0;fontColor=#FF0D0D;fontSize=13;" edge="1" parent="1" source="NLDukdXP7PHWZ-6-YrMP-4" target="NLDukdXP7PHWZ-6-YrMP-6">
          <mxGeometry relative="1" as="geometry" />
        </mxCell>
        <mxCell id="NLDukdXP7PHWZ-6-YrMP-4" value="考生扫码 &lt;br&gt;访问报名页面&lt;br&gt;&lt;font color=&quot;#3333ff&quot;&gt;点击报名&lt;/font&gt;" style="rounded=0;whiteSpace=wrap;html=1;fontSize=13;" vertex="1" parent="1">
          <mxGeometry x="1370.01" y="-5" width="276.25" height="60" as="geometry" />
        </mxCell>
        <mxCell id="NLDukdXP7PHWZ-6-YrMP-5" style="edgeStyle=orthogonalEdgeStyle;rounded=0;orthogonalLoop=1;jettySize=auto;html=1;exitX=0.5;exitY=1;exitDx=0;exitDy=0;entryX=0.5;entryY=0;entryDx=0;entryDy=0;fontColor=#000000;fontSize=13;" edge="1" parent="1" source="NLDukdXP7PHWZ-6-YrMP-6" target="NLDukdXP7PHWZ-6-YrMP-8">
          <mxGeometry relative="1" as="geometry" />
        </mxCell>
        <mxCell id="NLDukdXP7PHWZ-6-YrMP-6" value="&lt;div style=&quot;&quot;&gt;进入注册页面&lt;/div&gt;&lt;div style=&quot;&quot;&gt;&lt;span&gt;&lt;br&gt;&lt;/span&gt;&lt;/div&gt;&lt;div style=&quot;text-align: left;&quot;&gt;&lt;span&gt;1、需要填写手机号码注册&lt;/span&gt;&lt;/div&gt;&lt;div style=&quot;text-align: left;&quot;&gt;&lt;span&gt;2、获取验证码注册&lt;/span&gt;&lt;/div&gt;&lt;div style=&quot;text-align: left;&quot;&gt;&lt;span&gt;3、按确定后，注册成功&lt;/span&gt;&lt;/div&gt;" style="rounded=0;whiteSpace=wrap;html=1;fontSize=13;align=center;" vertex="1" parent="1">
          <mxGeometry x="1425" y="75" width="180" height="85" as="geometry" />
        </mxCell>
        <mxCell id="NLDukdXP7PHWZ-6-YrMP-7" style="edgeStyle=orthogonalEdgeStyle;rounded=0;orthogonalLoop=1;jettySize=auto;html=1;exitX=0.5;exitY=1;exitDx=0;exitDy=0;entryX=0.5;entryY=0;entryDx=0;entryDy=0;fontColor=#000000;fontSize=13;" edge="1" parent="1" source="NLDukdXP7PHWZ-6-YrMP-8" target="NLDukdXP7PHWZ-6-YrMP-10">
          <mxGeometry relative="1" as="geometry" />
        </mxCell>
        <mxCell id="NLDukdXP7PHWZ-6-YrMP-8" value="&lt;font color=&quot;#1a1a1a&quot;&gt;跳转到信息录入页&lt;/font&gt;&lt;br&gt;&lt;div style=&quot;text-align: left;&quot;&gt;&lt;span style=&quot;background-color: initial;&quot;&gt;1、姓名&lt;/span&gt;&lt;/div&gt;&lt;div style=&quot;text-align: left;&quot;&gt;&lt;span style=&quot;background-color: initial;&quot;&gt;2、身份证号&lt;/span&gt;&lt;/div&gt;&lt;div style=&quot;text-align: left;&quot;&gt;&lt;span style=&quot;background-color: initial;&quot;&gt;3、手机号&lt;/span&gt;&lt;/div&gt;&lt;div style=&quot;text-align: left;&quot;&gt;&lt;span style=&quot;background-color: initial;&quot;&gt;4、所属机构&lt;/span&gt;&lt;/div&gt;&lt;div style=&quot;text-align: left;&quot;&gt;&lt;span style=&quot;background-color: initial;&quot;&gt;5、邮箱地址&lt;/span&gt;&lt;/div&gt;&lt;div style=&quot;text-align: left;&quot;&gt;&lt;span style=&quot;background-color: initial;&quot;&gt;6、联系地址&lt;/span&gt;&lt;/div&gt;&lt;div style=&quot;&quot;&gt;&lt;font color=&quot;#000000&quot;&gt;填写完提交&lt;/font&gt;&lt;/div&gt;" style="rounded=0;whiteSpace=wrap;html=1;fontColor=#FF0D0D;fontSize=13;" vertex="1" parent="1">
          <mxGeometry x="1430" y="200" width="170" height="140" as="geometry" />
        </mxCell>
        <mxCell id="NLDukdXP7PHWZ-6-YrMP-9" style="edgeStyle=orthogonalEdgeStyle;rounded=0;orthogonalLoop=1;jettySize=auto;html=1;exitX=0.5;exitY=1;exitDx=0;exitDy=0;fontColor=#000000;fontSize=13;" edge="1" parent="1" source="NLDukdXP7PHWZ-6-YrMP-10" target="NLDukdXP7PHWZ-6-YrMP-11">
          <mxGeometry relative="1" as="geometry" />
        </mxCell>
        <mxCell id="NLDukdXP7PHWZ-6-YrMP-10" value="&lt;p style=&quot;line-height: 1;&quot;&gt;提交后跳转页面&lt;/p&gt;&lt;p style=&quot;line-height: 1;&quot;&gt;提示&lt;/p&gt;&lt;p style=&quot;line-height: 1;&quot;&gt;长按图片，识别二维码&lt;/p&gt;&lt;p style=&quot;line-height: 1;&quot;&gt;关注BioShanghai公众号&lt;/p&gt;&lt;p style=&quot;line-height: 1;&quot;&gt;发送“培训”、“答疑”等关键词&lt;/p&gt;&lt;p style=&quot;line-height: 1;&quot;&gt;&lt;span style=&quot;background-color: initial;&quot;&gt;获取培训课程和最新信息&lt;/span&gt;&lt;/p&gt;&lt;p style=&quot;line-height: 1;&quot;&gt;并提示&lt;span style=&quot;background-color: initial;&quot;&gt;请勿截屏及有问题&lt;/span&gt;&lt;/p&gt;&lt;p style=&quot;line-height: 1;&quot;&gt;&lt;span style=&quot;background-color: initial;&quot;&gt;可以发邮件给公共邮箱&lt;/span&gt;&lt;/p&gt;" style="rounded=0;whiteSpace=wrap;html=1;fontColor=#000000;fontSize=13;" vertex="1" parent="1">
          <mxGeometry x="1399.07" y="385" width="231.86" height="215" as="geometry" />
        </mxCell>
        <mxCell id="NLDukdXP7PHWZ-6-YrMP-30" style="edgeStyle=orthogonalEdgeStyle;rounded=0;orthogonalLoop=1;jettySize=auto;html=1;exitX=1;exitY=0.5;exitDx=0;exitDy=0;entryX=0.5;entryY=0;entryDx=0;entryDy=0;fontColor=#1A1A1A;" edge="1" parent="1" source="NLDukdXP7PHWZ-6-YrMP-11" target="NLDukdXP7PHWZ-6-YrMP-14">
          <mxGeometry relative="1" as="geometry" />
        </mxCell>
        <mxCell id="NLDukdXP7PHWZ-6-YrMP-11" value="报名结束" style="rounded=0;whiteSpace=wrap;html=1;fontColor=#000000;fontSize=13;" vertex="1" parent="1">
          <mxGeometry x="1455" y="620" width="120" height="60" as="geometry" />
        </mxCell>
        <mxCell id="NLDukdXP7PHWZ-6-YrMP-13" value="每天汇总报名情况&lt;br&gt;5月10日给用户群发短信，告知考试链接&lt;br&gt;&lt;br&gt;如果有短信无法群发到的号码，&lt;br&gt;视数量与至之沟通&lt;br&gt;或再用微信公众号，推送考试信息" style="rounded=0;whiteSpace=wrap;html=1;fontColor=#1A1A1A;" vertex="1" parent="1">
          <mxGeometry x="1370.01" y="710" width="310" height="100" as="geometry" />
        </mxCell>
        <mxCell id="NLDukdXP7PHWZ-6-YrMP-14" value="报名考生访问&lt;br style=&quot;font-size: 12px;&quot;&gt;微信公众号" style="rounded=1;whiteSpace=wrap;html=1;fontColor=#000000;fontSize=12;" vertex="1" parent="1">
          <mxGeometry x="1947.5" y="-80" width="145.01" height="60" as="geometry" />
        </mxCell>
        <mxCell id="NLDukdXP7PHWZ-6-YrMP-15" style="edgeStyle=orthogonalEdgeStyle;rounded=0;orthogonalLoop=1;jettySize=auto;html=1;exitX=0.5;exitY=1;exitDx=0;exitDy=0;fontColor=#000000;fontSize=12;" edge="1" parent="1" source="NLDukdXP7PHWZ-6-YrMP-16" target="NLDukdXP7PHWZ-6-YrMP-24">
          <mxGeometry relative="1" as="geometry" />
        </mxCell>
        <mxCell id="NLDukdXP7PHWZ-6-YrMP-16" value="1、关注公众号&lt;br style=&quot;font-size: 12px;&quot;&gt;2、收到关注后的推送文章。&lt;font color=&quot;#ff0d0d&quot; style=&quot;font-size: 12px;&quot;&gt;（推文1）&lt;/font&gt;" style="rounded=1;whiteSpace=wrap;html=1;fontColor=#000000;align=left;fontSize=12;" vertex="1" parent="1">
          <mxGeometry x="1830" y="30" width="160" height="60" as="geometry" />
        </mxCell>
        <mxCell id="NLDukdXP7PHWZ-6-YrMP-17" style="edgeStyle=orthogonalEdgeStyle;rounded=0;orthogonalLoop=1;jettySize=auto;html=1;exitX=0.5;exitY=1;exitDx=0;exitDy=0;entryX=0.5;entryY=0;entryDx=0;entryDy=0;fontColor=#000000;fontSize=12;" edge="1" parent="1" source="NLDukdXP7PHWZ-6-YrMP-18" target="NLDukdXP7PHWZ-6-YrMP-26">
          <mxGeometry relative="1" as="geometry" />
        </mxCell>
        <mxCell id="NLDukdXP7PHWZ-6-YrMP-18" value="1、进入公众号&lt;br style=&quot;font-size: 12px;&quot;&gt;2、回复关键词“培训”" style="rounded=1;whiteSpace=wrap;html=1;fontColor=#000000;align=left;fontSize=12;" vertex="1" parent="1">
          <mxGeometry x="2068" y="30" width="145" height="60" as="geometry" />
        </mxCell>
        <mxCell id="NLDukdXP7PHWZ-6-YrMP-19" value="" style="endArrow=classic;html=1;rounded=0;fontColor=#000000;entryX=0.405;entryY=-0.035;entryDx=0;entryDy=0;entryPerimeter=0;exitX=0;exitY=0.5;exitDx=0;exitDy=0;fontSize=12;" edge="1" parent="1" source="NLDukdXP7PHWZ-6-YrMP-14" target="NLDukdXP7PHWZ-6-YrMP-16">
          <mxGeometry relative="1" as="geometry">
            <mxPoint x="1745" as="sourcePoint" />
            <mxPoint x="1845" as="targetPoint" />
            <Array as="points">
              <mxPoint x="1894" y="-50" />
            </Array>
          </mxGeometry>
        </mxCell>
        <mxCell id="NLDukdXP7PHWZ-6-YrMP-20" value="未关注的考生" style="edgeLabel;resizable=0;html=1;align=center;verticalAlign=middle;fontColor=#FF0B03;fontSize=12;" connectable="0" vertex="1" parent="NLDukdXP7PHWZ-6-YrMP-19">
          <mxGeometry relative="1" as="geometry">
            <mxPoint y="18" as="offset" />
          </mxGeometry>
        </mxCell>
        <mxCell id="NLDukdXP7PHWZ-6-YrMP-21" value="" style="endArrow=classic;html=1;rounded=0;fontColor=#000000;entryX=0.5;entryY=0;entryDx=0;entryDy=0;fontSize=12;" edge="1" parent="1" target="NLDukdXP7PHWZ-6-YrMP-18">
          <mxGeometry relative="1" as="geometry">
            <mxPoint x="2095" y="-50" as="sourcePoint" />
            <mxPoint x="2215" y="-50" as="targetPoint" />
            <Array as="points">
              <mxPoint x="2140" y="-50" />
            </Array>
          </mxGeometry>
        </mxCell>
        <mxCell id="NLDukdXP7PHWZ-6-YrMP-22" value="已关注" style="edgeLabel;resizable=0;html=1;align=center;verticalAlign=middle;fontColor=#000000;fontSize=12;" connectable="0" vertex="1" parent="NLDukdXP7PHWZ-6-YrMP-21">
          <mxGeometry relative="1" as="geometry">
            <mxPoint y="12" as="offset" />
          </mxGeometry>
        </mxCell>
        <mxCell id="NLDukdXP7PHWZ-6-YrMP-23" style="edgeStyle=orthogonalEdgeStyle;rounded=0;orthogonalLoop=1;jettySize=auto;html=1;exitX=0.5;exitY=1;exitDx=0;exitDy=0;entryX=0.5;entryY=0;entryDx=0;entryDy=0;fontColor=#000000;fontSize=12;" edge="1" parent="1" source="NLDukdXP7PHWZ-6-YrMP-24" target="NLDukdXP7PHWZ-6-YrMP-28">
          <mxGeometry relative="1" as="geometry" />
        </mxCell>
        <mxCell id="NLDukdXP7PHWZ-6-YrMP-24" value="考生回复关键词&lt;br style=&quot;font-size: 12px;&quot;&gt;“培训”" style="rounded=1;whiteSpace=wrap;html=1;fontColor=#000000;fontSize=12;" vertex="1" parent="1">
          <mxGeometry x="1850" y="140" width="120" height="50" as="geometry" />
        </mxCell>
        <mxCell id="NLDukdXP7PHWZ-6-YrMP-25" style="edgeStyle=orthogonalEdgeStyle;rounded=0;orthogonalLoop=1;jettySize=auto;html=1;exitX=0.5;exitY=1;exitDx=0;exitDy=0;fontColor=#000000;fontSize=12;" edge="1" parent="1" source="NLDukdXP7PHWZ-6-YrMP-26" target="NLDukdXP7PHWZ-6-YrMP-29">
          <mxGeometry relative="1" as="geometry" />
        </mxCell>
        <mxCell id="NLDukdXP7PHWZ-6-YrMP-26" value="收到“培训视频”的内容推送&lt;br style=&quot;font-size: 12px;&quot;&gt;&lt;font color=&quot;#ff0d0d&quot; style=&quot;font-size: 12px;&quot;&gt;（推文2）&lt;/font&gt;" style="rounded=1;whiteSpace=wrap;html=1;fontColor=#000000;fontSize=12;" vertex="1" parent="1">
          <mxGeometry x="2064" y="140" width="153" height="60" as="geometry" />
        </mxCell>
        <mxCell id="NLDukdXP7PHWZ-6-YrMP-27" style="edgeStyle=orthogonalEdgeStyle;rounded=0;orthogonalLoop=1;jettySize=auto;html=1;exitX=0.5;exitY=1;exitDx=0;exitDy=0;fontColor=#000000;entryX=0.5;entryY=0;entryDx=0;entryDy=0;fontSize=12;" edge="1" parent="1" source="NLDukdXP7PHWZ-6-YrMP-28" target="NLDukdXP7PHWZ-6-YrMP-29">
          <mxGeometry relative="1" as="geometry">
            <mxPoint x="2065" y="360" as="targetPoint" />
          </mxGeometry>
        </mxCell>
        <mxCell id="NLDukdXP7PHWZ-6-YrMP-28" value="收到“培训视频”的内容推送&lt;br style=&quot;font-size: 12px;&quot;&gt;&lt;span style=&quot;color: rgb(255, 13, 13); font-size: 12px;&quot;&gt;（推文2）&lt;/span&gt;" style="rounded=1;whiteSpace=wrap;html=1;fontColor=#000000;fontSize=12;" vertex="1" parent="1">
          <mxGeometry x="1833.5" y="240" width="153" height="60" as="geometry" />
        </mxCell>
        <mxCell id="NLDukdXP7PHWZ-6-YrMP-56" style="edgeStyle=orthogonalEdgeStyle;rounded=0;orthogonalLoop=1;jettySize=auto;html=1;exitX=1;exitY=0.5;exitDx=0;exitDy=0;entryX=0;entryY=0.5;entryDx=0;entryDy=0;fontSize=12;fontColor=#1A1A1A;" edge="1" parent="1" source="NLDukdXP7PHWZ-6-YrMP-29" target="NLDukdXP7PHWZ-6-YrMP-34">
          <mxGeometry relative="1" as="geometry">
            <Array as="points">
              <mxPoint x="2300" y="390" />
              <mxPoint x="2300" y="-90" />
            </Array>
          </mxGeometry>
        </mxCell>
        <mxCell id="NLDukdXP7PHWZ-6-YrMP-29" value="考生观看视频，进行培训&lt;br style=&quot;font-size: 12px;&quot;&gt;在视频下放留言，提出问题" style="rounded=1;whiteSpace=wrap;html=1;fontColor=#000000;fontSize=12;" vertex="1" parent="1">
          <mxGeometry x="1970" y="360" width="175" height="60" as="geometry" />
        </mxCell>
        <mxCell id="NLDukdXP7PHWZ-6-YrMP-31" value="考生报名完成后，长按图片关注微信公众号" style="text;html=1;strokeColor=none;fillColor=none;align=center;verticalAlign=middle;whiteSpace=wrap;rounded=0;fontColor=#1A1A1A;" vertex="1" parent="1">
          <mxGeometry x="1770" y="-130" width="160" height="30" as="geometry" />
        </mxCell>
        <mxCell id="NLDukdXP7PHWZ-6-YrMP-33" style="edgeStyle=orthogonalEdgeStyle;rounded=0;orthogonalLoop=1;jettySize=auto;html=1;exitX=0.5;exitY=1;exitDx=0;exitDy=0;fontColor=#FF0A0A;" edge="1" parent="1" source="NLDukdXP7PHWZ-6-YrMP-34" target="NLDukdXP7PHWZ-6-YrMP-37">
          <mxGeometry relative="1" as="geometry" />
        </mxCell>
        <mxCell id="NLDukdXP7PHWZ-6-YrMP-34" value="一财群发&lt;br&gt;短信给报名考生&lt;br&gt;告知考试链接" style="rounded=0;whiteSpace=wrap;html=1;fontColor=#000000;align=center;" vertex="1" parent="1">
          <mxGeometry x="2547.51" y="-120" width="142.49" height="60" as="geometry" />
        </mxCell>
        <mxCell id="NLDukdXP7PHWZ-6-YrMP-35" value="&lt;h1&gt;考试流程&lt;/h1&gt;" style="text;html=1;strokeColor=none;fillColor=none;spacing=5;spacingTop=-20;whiteSpace=wrap;overflow=hidden;rounded=0;fontColor=#000000;" vertex="1" parent="1">
          <mxGeometry x="2940" y="75" width="190" height="45" as="geometry" />
        </mxCell>
        <mxCell id="NLDukdXP7PHWZ-6-YrMP-62" style="edgeStyle=orthogonalEdgeStyle;rounded=0;orthogonalLoop=1;jettySize=auto;html=1;exitX=0.5;exitY=1;exitDx=0;exitDy=0;entryX=0.5;entryY=0;entryDx=0;entryDy=0;fontSize=12;fontColor=#1A1A1A;" edge="1" parent="1" source="NLDukdXP7PHWZ-6-YrMP-37" target="NLDukdXP7PHWZ-6-YrMP-57">
          <mxGeometry relative="1" as="geometry" />
        </mxCell>
        <mxCell id="NLDukdXP7PHWZ-6-YrMP-37" value="通过链接&lt;br&gt;访问考试页面" style="rounded=0;whiteSpace=wrap;html=1;fontColor=#000000;fontSize=12;" vertex="1" parent="1">
          <mxGeometry x="2558.75" y="10" width="120" height="60" as="geometry" />
        </mxCell>
        <mxCell id="NLDukdXP7PHWZ-6-YrMP-39" value="考生答题" style="rounded=0;whiteSpace=wrap;html=1;fontColor=#FF0A0A;fontSize=12;" vertex="1" parent="1">
          <mxGeometry x="2583.75" y="680" width="120" height="60" as="geometry" />
        </mxCell>
        <mxCell id="NLDukdXP7PHWZ-6-YrMP-41" style="edgeStyle=orthogonalEdgeStyle;rounded=0;orthogonalLoop=1;jettySize=auto;html=1;exitX=0.5;exitY=1;exitDx=0;exitDy=0;entryX=0.5;entryY=0;entryDx=0;entryDy=0;fontColor=#FF0A0A;fontSize=12;" edge="1" parent="1" source="NLDukdXP7PHWZ-6-YrMP-42" target="NLDukdXP7PHWZ-6-YrMP-54">
          <mxGeometry relative="1" as="geometry" />
        </mxCell>
        <mxCell id="NLDukdXP7PHWZ-6-YrMP-76" style="edgeStyle=orthogonalEdgeStyle;rounded=0;orthogonalLoop=1;jettySize=auto;html=1;exitX=0;exitY=0.5;exitDx=0;exitDy=0;entryX=0.003;entryY=0.399;entryDx=0;entryDy=0;entryPerimeter=0;fontSize=12;fontColor=#1A1A1A;" edge="1" parent="1" source="NLDukdXP7PHWZ-6-YrMP-42" target="NLDukdXP7PHWZ-6-YrMP-57">
          <mxGeometry relative="1" as="geometry" />
        </mxCell>
        <mxCell id="NLDukdXP7PHWZ-6-YrMP-42" value="考试不合格&lt;br style=&quot;font-size: 12px;&quot;&gt;第一次失败" style="rounded=0;whiteSpace=wrap;html=1;fontColor=#FF0A0A;fontSize=12;" vertex="1" parent="1">
          <mxGeometry x="2460" y="790" width="120" height="60" as="geometry" />
        </mxCell>
        <mxCell id="NLDukdXP7PHWZ-6-YrMP-43" style="edgeStyle=orthogonalEdgeStyle;rounded=0;orthogonalLoop=1;jettySize=auto;html=1;exitX=0.5;exitY=1;exitDx=0;exitDy=0;entryX=0.5;entryY=0;entryDx=0;entryDy=0;fontColor=#FF0A0A;fontSize=12;" edge="1" parent="1" source="NLDukdXP7PHWZ-6-YrMP-44" target="NLDukdXP7PHWZ-6-YrMP-52">
          <mxGeometry relative="1" as="geometry" />
        </mxCell>
        <mxCell id="NLDukdXP7PHWZ-6-YrMP-44" value="考试合格" style="rounded=0;whiteSpace=wrap;html=1;fontColor=#FF0A0A;fontSize=12;" vertex="1" parent="1">
          <mxGeometry x="2697.5" y="790" width="120" height="60" as="geometry" />
        </mxCell>
        <mxCell id="NLDukdXP7PHWZ-6-YrMP-45" value="" style="endArrow=classic;html=1;rounded=0;fontColor=#FF0A0A;entryX=0.5;entryY=0;entryDx=0;entryDy=0;exitX=0;exitY=0.5;exitDx=0;exitDy=0;fontSize=12;" edge="1" parent="1" source="NLDukdXP7PHWZ-6-YrMP-39" target="NLDukdXP7PHWZ-6-YrMP-42">
          <mxGeometry relative="1" as="geometry">
            <mxPoint x="2435" y="720" as="sourcePoint" />
            <mxPoint x="2535" y="720" as="targetPoint" />
            <Array as="points">
              <mxPoint x="2520" y="710" />
            </Array>
          </mxGeometry>
        </mxCell>
        <mxCell id="NLDukdXP7PHWZ-6-YrMP-46" value="成绩80分以下" style="edgeLabel;resizable=0;html=1;align=center;verticalAlign=middle;fontColor=#FF0A0A;fontSize=12;" connectable="0" vertex="1" parent="NLDukdXP7PHWZ-6-YrMP-45">
          <mxGeometry relative="1" as="geometry">
            <mxPoint y="25" as="offset" />
          </mxGeometry>
        </mxCell>
        <mxCell id="NLDukdXP7PHWZ-6-YrMP-47" value="" style="endArrow=classic;html=1;rounded=0;fontColor=#FF0A0A;entryX=0.5;entryY=0;entryDx=0;entryDy=0;exitX=1;exitY=0.5;exitDx=0;exitDy=0;fontSize=12;" edge="1" parent="1" source="NLDukdXP7PHWZ-6-YrMP-39" target="NLDukdXP7PHWZ-6-YrMP-44">
          <mxGeometry relative="1" as="geometry">
            <mxPoint x="2705" y="710" as="sourcePoint" />
            <mxPoint x="2805" y="710" as="targetPoint" />
            <Array as="points">
              <mxPoint x="2758" y="710" />
            </Array>
          </mxGeometry>
        </mxCell>
        <mxCell id="NLDukdXP7PHWZ-6-YrMP-48" value="成绩80分以上" style="edgeLabel;resizable=0;html=1;align=center;verticalAlign=middle;fontColor=#FF0A0A;fontSize=12;" connectable="0" vertex="1" parent="NLDukdXP7PHWZ-6-YrMP-47">
          <mxGeometry relative="1" as="geometry">
            <mxPoint y="25" as="offset" />
          </mxGeometry>
        </mxCell>
        <mxCell id="NLDukdXP7PHWZ-6-YrMP-49" value="&lt;h1 style=&quot;font-size: 14px;&quot;&gt;&lt;font color=&quot;#000000&quot;&gt;关于考试试题&lt;/font&gt;&lt;/h1&gt;&lt;p style=&quot;font-size: 14px;&quot;&gt;&lt;font color=&quot;#000000&quot;&gt;一次考试50道试题，每题2分，&lt;span style=&quot;background-color: initial;&quot;&gt;满分100分&lt;/span&gt;&lt;/font&gt;&lt;/p&gt;&lt;p style=&quot;font-size: 14px;&quot;&gt;&lt;font color=&quot;#000000&quot;&gt;题型：&lt;/font&gt;&lt;/p&gt;&lt;p style=&quot;font-size: 14px;&quot;&gt;方案一：总分100分，80分合格&lt;/p&gt;&lt;p style=&quot;font-size: 14px;&quot;&gt;&lt;font color=&quot;#1a1a1a&quot;&gt;单选题：40题（每题1分）&lt;/font&gt;&lt;/p&gt;&lt;p style=&quot;font-size: 14px;&quot;&gt;&lt;font color=&quot;#1a1a1a&quot;&gt;多选题：10题（每题2分）&lt;/font&gt;&lt;/p&gt;&lt;p style=&quot;font-size: 14px;&quot;&gt;&lt;font color=&quot;#1a1a1a&quot;&gt;判断题：20题（每题2分）&lt;/font&gt;&lt;/p&gt;&lt;p style=&quot;font-size: 14px;&quot;&gt;&lt;br&gt;&lt;/p&gt;&lt;p style=&quot;font-size: 14px;&quot;&gt;方案二：总分100分，80分合格&lt;/p&gt;&lt;p style=&quot;font-size: 14px;&quot;&gt;&lt;font color=&quot;#1a1a1a&quot;&gt;单选题：20题（每题2分）&lt;/font&gt;&lt;/p&gt;&lt;p style=&quot;font-size: 14px;&quot;&gt;&lt;font color=&quot;#1a1a1a&quot;&gt;多选题：10题（每题2分）&lt;/font&gt;&lt;/p&gt;&lt;p style=&quot;font-size: 14px;&quot;&gt;&lt;font color=&quot;#1a1a1a&quot;&gt;判断题：20题（每题2分）&lt;/font&gt;&lt;/p&gt;&lt;p style=&quot;font-size: 14px;&quot;&gt;&lt;br&gt;&lt;/p&gt;" style="text;html=1;strokeColor=none;fillColor=none;spacing=5;spacingTop=-20;whiteSpace=wrap;overflow=hidden;rounded=0;fontColor=#FF0A0A;fontSize=14;" vertex="1" parent="1">
          <mxGeometry x="2940" y="124.5" width="290" height="365.5" as="geometry" />
        </mxCell>
        <mxCell id="NLDukdXP7PHWZ-6-YrMP-50" value="重新参加考试" style="text;html=1;strokeColor=none;fillColor=none;align=center;verticalAlign=middle;whiteSpace=wrap;rounded=0;fontColor=#FF0A0A;fontSize=14;horizontal=0;rotation=90;" vertex="1" parent="1">
          <mxGeometry x="2375" y="385" width="90" height="35" as="geometry" />
        </mxCell>
        <mxCell id="NLDukdXP7PHWZ-6-YrMP-51" style="edgeStyle=orthogonalEdgeStyle;rounded=0;orthogonalLoop=1;jettySize=auto;html=1;exitX=0.5;exitY=1;exitDx=0;exitDy=0;entryX=0.5;entryY=0;entryDx=0;entryDy=0;fontColor=#FF0A0A;fontSize=12;" edge="1" parent="1" source="NLDukdXP7PHWZ-6-YrMP-52" target="NLDukdXP7PHWZ-6-YrMP-55">
          <mxGeometry relative="1" as="geometry" />
        </mxCell>
        <mxCell id="NLDukdXP7PHWZ-6-YrMP-52" value="跳转页面&lt;br style=&quot;font-size: 12px;&quot;&gt;考试通过，考试通过电子证书" style="rounded=0;whiteSpace=wrap;html=1;fontColor=#FF0A0A;fontSize=12;" vertex="1" parent="1">
          <mxGeometry x="2697" y="887" width="120" height="60" as="geometry" />
        </mxCell>
        <mxCell id="NLDukdXP7PHWZ-6-YrMP-53" style="edgeStyle=orthogonalEdgeStyle;rounded=0;orthogonalLoop=1;jettySize=auto;html=1;exitX=0.5;exitY=1;exitDx=0;exitDy=0;fontColor=#FF0A0A;fontSize=12;" edge="1" parent="1" source="NLDukdXP7PHWZ-6-YrMP-54">
          <mxGeometry relative="1" as="geometry">
            <mxPoint x="2635" y="1007" as="targetPoint" />
          </mxGeometry>
        </mxCell>
        <mxCell id="NLDukdXP7PHWZ-6-YrMP-54" value="2次都不合格&lt;br style=&quot;font-size: 12px;&quot;&gt;考试结束" style="rounded=0;whiteSpace=wrap;html=1;fontColor=#FF0A0A;fontSize=12;" vertex="1" parent="1">
          <mxGeometry x="2460" y="887" width="120" height="60" as="geometry" />
        </mxCell>
        <mxCell id="NLDukdXP7PHWZ-6-YrMP-55" value="关闭页面" style="rounded=0;whiteSpace=wrap;html=1;fontColor=#FF0A0A;fontSize=12;" vertex="1" parent="1">
          <mxGeometry x="2580" y="1007" width="120" height="60" as="geometry" />
        </mxCell>
        <mxCell id="NLDukdXP7PHWZ-6-YrMP-63" style="edgeStyle=orthogonalEdgeStyle;rounded=0;orthogonalLoop=1;jettySize=auto;html=1;exitX=0.5;exitY=1;exitDx=0;exitDy=0;entryX=0.5;entryY=0;entryDx=0;entryDy=0;fontSize=12;fontColor=#1A1A1A;" edge="1" parent="1" source="NLDukdXP7PHWZ-6-YrMP-57" target="NLDukdXP7PHWZ-6-YrMP-58">
          <mxGeometry relative="1" as="geometry" />
        </mxCell>
        <mxCell id="NLDukdXP7PHWZ-6-YrMP-57" value="页面显示需要考生输入&lt;br&gt;注册时候的手机号码" style="rounded=0;whiteSpace=wrap;html=1;fontSize=12;fontColor=#1A1A1A;" vertex="1" parent="1">
          <mxGeometry x="2548.26" y="110" width="141" height="60" as="geometry" />
        </mxCell>
        <mxCell id="NLDukdXP7PHWZ-6-YrMP-64" style="edgeStyle=orthogonalEdgeStyle;rounded=0;orthogonalLoop=1;jettySize=auto;html=1;exitX=0.5;exitY=1;exitDx=0;exitDy=0;fontSize=12;fontColor=#1A1A1A;" edge="1" parent="1" source="NLDukdXP7PHWZ-6-YrMP-58" target="NLDukdXP7PHWZ-6-YrMP-59">
          <mxGeometry relative="1" as="geometry" />
        </mxCell>
        <mxCell id="NLDukdXP7PHWZ-6-YrMP-65" style="edgeStyle=orthogonalEdgeStyle;rounded=0;orthogonalLoop=1;jettySize=auto;html=1;exitX=0.5;exitY=1;exitDx=0;exitDy=0;entryX=0.5;entryY=0;entryDx=0;entryDy=0;fontSize=12;fontColor=#1A1A1A;" edge="1" parent="1" source="NLDukdXP7PHWZ-6-YrMP-58" target="NLDukdXP7PHWZ-6-YrMP-60">
          <mxGeometry relative="1" as="geometry" />
        </mxCell>
        <mxCell id="NLDukdXP7PHWZ-6-YrMP-79" style="edgeStyle=orthogonalEdgeStyle;rounded=0;orthogonalLoop=1;jettySize=auto;html=1;exitX=0.5;exitY=1;exitDx=0;exitDy=0;entryX=0.5;entryY=0;entryDx=0;entryDy=0;fontSize=12;fontColor=#009900;" edge="1" parent="1" source="NLDukdXP7PHWZ-6-YrMP-58" target="NLDukdXP7PHWZ-6-YrMP-78">
          <mxGeometry relative="1" as="geometry" />
        </mxCell>
        <mxCell id="NLDukdXP7PHWZ-6-YrMP-58" value="考生输入号码" style="rounded=0;whiteSpace=wrap;html=1;fontSize=12;fontColor=#1A1A1A;" vertex="1" parent="1">
          <mxGeometry x="2558.76" y="200" width="120" height="35" as="geometry" />
        </mxCell>
        <mxCell id="NLDukdXP7PHWZ-6-YrMP-66" style="edgeStyle=orthogonalEdgeStyle;rounded=0;orthogonalLoop=1;jettySize=auto;html=1;exitX=0.5;exitY=1;exitDx=0;exitDy=0;entryX=0.5;entryY=0;entryDx=0;entryDy=0;fontSize=12;fontColor=#1A1A1A;" edge="1" parent="1" source="NLDukdXP7PHWZ-6-YrMP-59" target="NLDukdXP7PHWZ-6-YrMP-61">
          <mxGeometry relative="1" as="geometry" />
        </mxCell>
        <mxCell id="NLDukdXP7PHWZ-6-YrMP-59" value="&lt;font color=&quot;#009900&quot;&gt;通过微信第一次&lt;br&gt;&lt;/font&gt;访问的用户&lt;br&gt;页面会自动弹出&lt;br&gt;需要获取微信相关权限&lt;br&gt;提示" style="rounded=0;whiteSpace=wrap;html=1;fontSize=12;fontColor=#1A1A1A;" vertex="1" parent="1">
          <mxGeometry x="2470" y="280" width="140" height="80" as="geometry" />
        </mxCell>
        <mxCell id="NLDukdXP7PHWZ-6-YrMP-73" style="edgeStyle=orthogonalEdgeStyle;rounded=0;orthogonalLoop=1;jettySize=auto;html=1;exitX=0.5;exitY=1;exitDx=0;exitDy=0;entryX=0.5;entryY=0;entryDx=0;entryDy=0;fontSize=12;fontColor=#1A1A1A;" edge="1" parent="1" source="NLDukdXP7PHWZ-6-YrMP-60" target="NLDukdXP7PHWZ-6-YrMP-71">
          <mxGeometry relative="1" as="geometry" />
        </mxCell>
        <mxCell id="NLDukdXP7PHWZ-6-YrMP-60" value="通过微信第二次&lt;br&gt;访问的考生输入后&lt;br&gt;直接访问考试页面" style="rounded=0;whiteSpace=wrap;html=1;fontSize=12;fontColor=#1A1A1A;" vertex="1" parent="1">
          <mxGeometry x="2650" y="280" width="120" height="60" as="geometry" />
        </mxCell>
        <mxCell id="NLDukdXP7PHWZ-6-YrMP-69" style="edgeStyle=orthogonalEdgeStyle;rounded=0;orthogonalLoop=1;jettySize=auto;html=1;exitX=0.5;exitY=1;exitDx=0;exitDy=0;entryX=0.5;entryY=0;entryDx=0;entryDy=0;fontSize=12;fontColor=#1A1A1A;" edge="1" parent="1" source="NLDukdXP7PHWZ-6-YrMP-61" target="NLDukdXP7PHWZ-6-YrMP-68">
          <mxGeometry relative="1" as="geometry" />
        </mxCell>
        <mxCell id="NLDukdXP7PHWZ-6-YrMP-61" value="点击确认&lt;br&gt;将回到开始页面" style="rounded=0;whiteSpace=wrap;html=1;fontSize=12;fontColor=#1A1A1A;" vertex="1" parent="1">
          <mxGeometry x="2476" y="380" width="120" height="60" as="geometry" />
        </mxCell>
        <mxCell id="NLDukdXP7PHWZ-6-YrMP-72" style="edgeStyle=orthogonalEdgeStyle;rounded=0;orthogonalLoop=1;jettySize=auto;html=1;exitX=0.5;exitY=1;exitDx=0;exitDy=0;entryX=0.5;entryY=0;entryDx=0;entryDy=0;fontSize=12;fontColor=#1A1A1A;" edge="1" parent="1" source="NLDukdXP7PHWZ-6-YrMP-68" target="NLDukdXP7PHWZ-6-YrMP-71">
          <mxGeometry relative="1" as="geometry" />
        </mxCell>
        <mxCell id="NLDukdXP7PHWZ-6-YrMP-68" value="页面显示需要考生输入&lt;br&gt;注册时候的手机号码" style="rounded=0;whiteSpace=wrap;html=1;fontSize=12;fontColor=#1A1A1A;" vertex="1" parent="1">
          <mxGeometry x="2465" y="470" width="141" height="70" as="geometry" />
        </mxCell>
        <mxCell id="NLDukdXP7PHWZ-6-YrMP-75" style="edgeStyle=orthogonalEdgeStyle;rounded=0;orthogonalLoop=1;jettySize=auto;html=1;exitX=0.5;exitY=1;exitDx=0;exitDy=0;entryX=0.5;entryY=0;entryDx=0;entryDy=0;fontSize=12;fontColor=#1A1A1A;" edge="1" parent="1" source="NLDukdXP7PHWZ-6-YrMP-71" target="NLDukdXP7PHWZ-6-YrMP-39">
          <mxGeometry relative="1" as="geometry" />
        </mxCell>
        <mxCell id="NLDukdXP7PHWZ-6-YrMP-71" value="正式进入考试页面" style="rounded=0;whiteSpace=wrap;html=1;fontSize=12;fontColor=#1A1A1A;" vertex="1" parent="1">
          <mxGeometry x="2520" y="584.5" width="240" height="60" as="geometry" />
        </mxCell>
        <mxCell id="NLDukdXP7PHWZ-6-YrMP-80" style="edgeStyle=orthogonalEdgeStyle;rounded=0;orthogonalLoop=1;jettySize=auto;html=1;exitX=0.5;exitY=1;exitDx=0;exitDy=0;entryX=0.5;entryY=0;entryDx=0;entryDy=0;fontSize=12;fontColor=#009900;" edge="1" parent="1" source="NLDukdXP7PHWZ-6-YrMP-78" target="NLDukdXP7PHWZ-6-YrMP-71">
          <mxGeometry relative="1" as="geometry" />
        </mxCell>
        <mxCell id="NLDukdXP7PHWZ-6-YrMP-78" value="用户通过浏览器&lt;br&gt;访问考试链接的&lt;br&gt;直接进入考试页面" style="rounded=0;whiteSpace=wrap;html=1;fontSize=12;fontColor=#1A1A1A;" vertex="1" parent="1">
          <mxGeometry x="2790" y="280" width="120" height="60" as="geometry" />
        </mxCell>
        <mxCell id="NLDukdXP7PHWZ-6-YrMP-83" value="&lt;h1 style=&quot;font-size: 14px;&quot;&gt;&lt;font color=&quot;#000000&quot;&gt;考试时间：&lt;/font&gt;&lt;/h1&gt;&lt;p style=&quot;font-size: 14px;&quot;&gt;&lt;font color=&quot;#ff0b03&quot;&gt;5月11日&amp;nbsp; 14:00 - 18:00&amp;nbsp; 随进随考？&lt;/font&gt;&lt;/p&gt;" style="text;html=1;strokeColor=none;fillColor=none;spacing=5;spacingTop=-20;whiteSpace=wrap;overflow=hidden;rounded=0;fontColor=#FF0A0A;fontSize=14;" vertex="1" parent="1">
          <mxGeometry x="2940" y="521.5" width="290" height="58.5" as="geometry" />
        </mxCell>
      </root>
    </mxGraphModel>
  </diagram>
</mxfile>
